<svg width="152" height="24" viewBox="0 0 152 24" fill="none" xmlns="http://www.w3.org/2000/svg">
<g clip-path="url(#clip0_1337:2063)">
<path d="M23.1451 8.53967L16.0641 7.51066L12.9011 1.09866C12.8092 0.942523 12.6781 0.813089 12.5207 0.723164C12.3634 0.633239 12.1853 0.585938 12.0041 0.585938C11.8229 0.585938 11.6449 0.633239 11.4875 0.723164C11.3302 0.813089 11.1991 0.942523 11.1071 1.09866L7.93814 7.51066L0.857139 8.53967C0.672479 8.56632 0.498959 8.6441 0.356195 8.76422C0.213431 8.88434 0.107117 9.042 0.0492738 9.21938C-0.00856983 9.39676 -0.0156366 9.58678 0.0288724 9.76797C0.0733813 9.94915 0.167691 10.1143 0.301139 10.2447L5.42614 15.2387L4.21714 22.2917C4.18563 22.4756 4.2062 22.6646 4.27652 22.8374C4.34684 23.0103 4.46411 23.16 4.61507 23.2696C4.76603 23.3793 4.94465 23.4445 5.13075 23.4579C5.31685 23.4714 5.50299 23.4325 5.66814 23.3457L12.0011 20.0167L18.3341 23.3457C18.4993 23.4325 18.6854 23.4714 18.8715 23.4579C19.0576 23.4445 19.2362 23.3793 19.3872 23.2696C19.5382 23.16 19.6554 23.0103 19.7258 22.8374C19.7961 22.6646 19.8166 22.4756 19.7851 22.2917L18.5761 15.2387L23.7011 10.2447C23.8345 10.1144 23.9289 9.94945 23.9735 9.76841C24.0181 9.58737 24.0112 9.39746 23.9536 9.22013C23.896 9.0428 23.7899 8.88511 23.6474 8.76487C23.5049 8.64463 23.3316 8.56663 23.1471 8.53967H23.1451Z" fill="#2CE75C"/>
</g>
<g clip-path="url(#clip1_1337:2063)">
<path d="M87.1451 8.53967L80.0641 7.51066L76.9011 1.09866C76.8092 0.942523 76.6781 0.813089 76.5207 0.723164C76.3634 0.633239 76.1853 0.585938 76.0041 0.585938C75.8229 0.585938 75.6449 0.633239 75.4875 0.723164C75.3302 0.813089 75.1991 0.942523 75.1071 1.09866L71.9381 7.51066L64.8571 8.53967C64.6725 8.56632 64.499 8.6441 64.3562 8.76422C64.2134 8.88434 64.1071 9.042 64.0493 9.21938C63.9914 9.39676 63.9844 9.58678 64.0289 9.76797C64.0734 9.94915 64.1677 10.1143 64.3011 10.2447L69.4261 15.2387L68.2171 22.2917C68.1856 22.4756 68.2062 22.6646 68.2765 22.8374C68.3468 23.0103 68.4641 23.16 68.6151 23.2696C68.766 23.3793 68.9447 23.4445 69.1307 23.4579C69.3168 23.4714 69.503 23.4325 69.6681 23.3457L76.0011 20.0167L82.3341 23.3457C82.4993 23.4325 82.6854 23.4714 82.8715 23.4579C83.0576 23.4445 83.2362 23.3793 83.3872 23.2696C83.5382 23.16 83.6554 23.0103 83.7258 22.8374C83.7961 22.6646 83.8166 22.4756 83.7851 22.2917L82.5761 15.2387L87.7011 10.2447C87.8345 10.1144 87.9289 9.94945 87.9735 9.76841C88.0181 9.58737 88.0112 9.39746 87.9536 9.22013C87.896 9.0428 87.7899 8.88511 87.6474 8.76487C87.5049 8.64463 87.3316 8.56663 87.1471 8.53967H87.1451Z" fill="#2CE75C"/>
</g>
<g clip-path="url(#clip2_1337:2063)">
<path d="M55.1451 8.53967L48.0641 7.51066L44.9011 1.09866C44.8092 0.942523 44.6781 0.813089 44.5207 0.723164C44.3634 0.633239 44.1853 0.585938 44.0041 0.585938C43.8229 0.585938 43.6449 0.633239 43.4875 0.723164C43.3302 0.813089 43.1991 0.942523 43.1071 1.09866L39.9381 7.51066L32.8571 8.53967C32.6725 8.56632 32.499 8.6441 32.3562 8.76422C32.2134 8.88434 32.1071 9.042 32.0493 9.21938C31.9914 9.39676 31.9844 9.58678 32.0289 9.76797C32.0734 9.94915 32.1677 10.1143 32.3011 10.2447L37.4261 15.2387L36.2171 22.2917C36.1856 22.4756 36.2062 22.6646 36.2765 22.8374C36.3468 23.0103 36.4641 23.16 36.6151 23.2696C36.766 23.3793 36.9447 23.4445 37.1307 23.4579C37.3168 23.4714 37.503 23.4325 37.6681 23.3457L44.0011 20.0167L50.3341 23.3457C50.4993 23.4325 50.6854 23.4714 50.8715 23.4579C51.0576 23.4445 51.2362 23.3793 51.3872 23.2696C51.5382 23.16 51.6554 23.0103 51.7258 22.8374C51.7961 22.6646 51.8166 22.4756 51.7851 22.2917L50.5761 15.2387L55.7011 10.2447C55.8345 10.1144 55.9289 9.94945 55.9735 9.76841C56.0181 9.58737 56.0112 9.39746 55.9536 9.22013C55.896 9.0428 55.7899 8.88511 55.6474 8.76487C55.5049 8.64463 55.3316 8.56663 55.1471 8.53967H55.1451Z" fill="#2CE75C"/>
</g>
<g clip-path="url(#clip3_1337:2063)">
<path d="M119.145 8.53967L112.064 7.51066L108.901 1.09866C108.809 0.942523 108.678 0.813089 108.521 0.723164C108.363 0.633239 108.185 0.585938 108.004 0.585938C107.823 0.585938 107.645 0.633239 107.488 0.723164C107.33 0.813089 107.199 0.942523 107.107 1.09866L103.938 7.51066L96.8571 8.53967C96.6725 8.56632 96.499 8.6441 96.3562 8.76422C96.2134 8.88434 96.1071 9.042 96.0493 9.21938C95.9914 9.39676 95.9844 9.58678 96.0289 9.76797C96.0734 9.94915 96.1677 10.1143 96.3011 10.2447L101.426 15.2387L100.217 22.2917C100.186 22.4756 100.206 22.6646 100.277 22.8374C100.347 23.0103 100.464 23.16 100.615 23.2696C100.766 23.3793 100.945 23.4445 101.131 23.4579C101.317 23.4714 101.503 23.4325 101.668 23.3457L108.001 20.0167L114.334 23.3457C114.499 23.4325 114.685 23.4714 114.872 23.4579C115.058 23.4445 115.236 23.3793 115.387 23.2696C115.538 23.16 115.655 23.0103 115.726 22.8374C115.796 22.6646 115.817 22.4756 115.785 22.2917L114.576 15.2387L119.701 10.2447C119.835 10.1144 119.929 9.94945 119.973 9.76841C120.018 9.58737 120.011 9.39746 119.954 9.22013C119.896 9.0428 119.79 8.88511 119.647 8.76487C119.505 8.64463 119.332 8.56663 119.147 8.53967H119.145Z" fill="#2CE75C"/>
</g>
<g clip-path="url(#clip4_1337:2063)">
<path d="M151.145 8.53967L144.064 7.51066L140.901 1.09866C140.809 0.942523 140.678 0.813089 140.521 0.723164C140.363 0.633239 140.185 0.585938 140.004 0.585938C139.823 0.585938 139.645 0.633239 139.488 0.723164C139.33 0.813089 139.199 0.942523 139.107 1.09866L135.938 7.51066L128.857 8.53967C128.672 8.56632 128.499 8.6441 128.356 8.76422C128.213 8.88434 128.107 9.042 128.049 9.21938C127.991 9.39676 127.984 9.58678 128.029 9.76797C128.073 9.94915 128.168 10.1143 128.301 10.2447L133.426 15.2387L132.217 22.2917C132.186 22.4756 132.206 22.6646 132.277 22.8374C132.347 23.0103 132.464 23.16 132.615 23.2696C132.766 23.3793 132.945 23.4445 133.131 23.4579C133.317 23.4714 133.503 23.4325 133.668 23.3457L140.001 20.0167L146.334 23.3457C146.499 23.4325 146.685 23.4714 146.872 23.4579C147.058 23.4445 147.236 23.3793 147.387 23.2696C147.538 23.16 147.655 23.0103 147.726 22.8374C147.796 22.6646 147.817 22.4756 147.785 22.2917L146.576 15.2387L151.701 10.2447C151.835 10.1144 151.929 9.94945 151.973 9.76841C152.018 9.58737 152.011 9.39746 151.954 9.22013C151.896 9.0428 151.79 8.88511 151.647 8.76487C151.505 8.64463 151.332 8.56663 151.147 8.53967H151.145Z" fill="#2CE75C"/>
</g>
<defs>
<clipPath id="clip0_1337:2063">
<rect width="24" height="24" fill="white"/>
</clipPath>
<clipPath id="clip1_1337:2063">
<rect width="24" height="24" fill="white" transform="translate(64)"/>
</clipPath>
<clipPath id="clip2_1337:2063">
<rect width="24" height="24" fill="white" transform="translate(32)"/>
</clipPath>
<clipPath id="clip3_1337:2063">
<rect width="24" height="24" fill="white" transform="translate(96)"/>
</clipPath>
<clipPath id="clip4_1337:2063">
<rect width="24" height="24" fill="white" transform="translate(128)"/>
</clipPath>
</defs>
</svg>
